<?xml version="1.0" encoding="UTF-8"?>
<!DOCTYPE svg PUBLIC "-//W3C//DTD SVG 1.1//EN" "http://www.w3.org/Graphics/SVG/1.1/DTD/svg11.dtd">
<svg xmlns="http://www.w3.org/2000/svg" version="1.1" width="512px" height="512px" style="shape-rendering:geometricPrecision; text-rendering:geometricPrecision; image-rendering:optimizeQuality; fill-rule:evenodd; clip-rule:evenodd" xmlns:xlink="http://www.w3.org/1999/xlink">
<g><path style="opacity:0.984" fill="#e74132" d="M 159.5,222.5 C 139.539,206.844 119.539,191.178 99.5,175.5C 125.26,125.598 165.594,94.0975 220.5,81C 279.95,69.152 332.45,82.9853 378,122.5C 378.667,123.5 378.667,124.5 378,125.5C 361.5,142 345,158.5 328.5,175C 326.721,174.956 325.055,174.289 323.5,173C 305.194,156.782 283.694,148.615 259,148.5C 210.179,152.46 177.012,177.127 159.5,222.5 Z"/></g>
<g><path style="opacity:0.988" fill="#f8ba00" d="M 99.5,175.5 C 119.539,191.178 139.539,206.844 159.5,222.5C 152.833,244.5 152.833,266.5 159.5,288.5C 140.098,304.899 120.098,320.566 99.5,335.5C 74.1667,282.167 74.1667,228.833 99.5,175.5 Z"/></g>
<g><path style="opacity:0.984" fill="#3e82f0" d="M 377.5,390.5 C 358.167,375.5 338.833,360.5 319.5,345.5C 337.68,332.461 349.347,314.961 354.5,293C 322.502,292.5 290.502,292.333 258.5,292.5C 258.5,269.167 258.5,245.833 258.5,222.5C 314.833,222.5 371.167,222.5 427.5,222.5C 435.757,270.219 428.257,315.219 405,357.5C 397.476,369.859 388.309,380.859 377.5,390.5 Z"/></g>
<g><path style="opacity:0.987" fill="#32a653" d="M 159.5,288.5 C 178.279,337.247 213.946,361.747 266.5,362C 285.622,360.973 303.289,355.473 319.5,345.5C 338.833,360.5 358.167,375.5 377.5,390.5C 352.306,413.424 322.639,427.258 288.5,432C 213.532,441.035 154.032,415.201 110,354.5C 105.98,348.461 102.48,342.128 99.5,335.5C 120.098,320.566 140.098,304.899 159.5,288.5 Z"/></g>
</svg>
