<svg id="Layer_1" data-name="Layer 1" xmlns="http://www.w3.org/2000/svg" viewBox="0 0 700 600"><title>Corporate Illustrations Pack - Scene 5</title><path d="M597.5,458.32h-2c0-26.43-6.54-44.08-20-54C563,395.12,546,393.88,531.05,393.88c-17.27,0-35.19-1.32-49.28-10.85-16.47-11.12-24.47-31.27-24.47-61.59,0-63.87-31.47-92.47-62.66-92.47v-2c32.18,0,64.66,29.21,64.66,94.47,0,29.6,7.71,49.21,23.58,59.94,13.66,9.22,31.22,10.5,48.17,10.5C565.56,391.88,597.5,399.93,597.5,458.32Z" fill="#f5f5f5"/><path d="M557.62,404.6a9.2,9.2,0,1,1,9.2-9.2A9.21,9.21,0,0,1,557.62,404.6Zm0-16.4a7.2,7.2,0,1,0,7.2,7.2A7.21,7.21,0,0,0,557.62,388.2Z" fill="#d1d1d1"/><path d="M594,442a9.2,9.2,0,1,1,9.2-9.2A9.21,9.21,0,0,1,594,442Zm0-16.4a7.2,7.2,0,1,0,7.2,7.2A7.21,7.21,0,0,0,594,425.58Z" fill="#d1d1d1"/><rect x="450.98" y="288.69" width="33.68" height="19.74" fill="#d1d1d1"/><path d="M510.51,423.9s11.6-11.74,17.16-15.15,19.58-11,19.58-11,1.14,2.66-2.27,6.63a31.66,31.66,0,0,1-8,6.44s5.72-1.7,6.1,1.71A17.49,17.49,0,0,0,545,418.6a25.42,25.42,0,0,1,6.82-.38c3,.38-2.65,3.79-11.37,11.37S524.9,440.2,521.11,441,510.51,423.9,510.51,423.9Z" fill="#ffbc9d"/><path d="M545.35,422.43l2.17,5.59s-3.56,3.56-5.26,0S545.35,422.43,545.35,422.43Z" fill="#ffbc9d"/><path d="M542.54,422.43l2.17,5.59s-3.57,3.56-5.26,0S542.54,422.43,542.54,422.43Z" fill="#ffbc9d"/><path d="M211.52,241.3s.82,7.78-6.15,29.49,5.33,62.78,25.4,70.71,36-15.41,31.54-38.76-19.66-36.46-31.13-46.29A207.42,207.42,0,0,0,211.52,241.3Z" fill="#8BC34A"/><path d="M223,259.32a160.73,160.73,0,0,1,12,34.19,162.87,162.87,0,0,1,4.37,36l0,4.55c0,1.51,0,3-.15,4.54l-.33,4.54c-.13,1.51-.16,3-.42,4.53-.44,3-.83,6-1.3,9l-1.61,8.93c-2.18,11.9-4.55,23.77-6.78,35.65s-4.23,23.78-5.53,35.77-1.91,24-2.14,36.12c-.13,6-.11,12.08-.16,18.12l-.11,18.14-.18,36.27H217.4L218,509.4l.31-18.15c.11-6.05.16-12.09.36-18.15.36-12.11,1.1-24.24,2.55-36.28s3.56-24,5.94-35.86,4.86-23.69,7.17-35.56l1.71-8.91c.5-3,.92-5.95,1.38-8.93.28-1.48.32-3,.47-4.49l.37-4.51c.17-1.5.18-3,.21-4.51l.09-4.53a162.07,162.07,0,0,0-4-35.92A160.21,160.21,0,0,0,223,259.32Z" fill="#17212b"/><path d="M189.74,416c5.53,9.31,15,6.76,29.24,8.6s18.55,4.3,27.77,14.13,38.09,8.6,44.85,5.53c0,0-15.36-11.06-24-28.26s-20.36-34.2-36.6-32.77S177,394.49,189.74,416Z" fill="#8BC34A"/><path d="M265.61,430.74a50.09,50.09,0,0,1-11.67-7.34c-3.6-2.89-7-6-10.42-9.09-1.71-1.54-3.4-3.13-5.14-4.62a26,26,0,0,0-2.72-2.07l-1.44-.93c-.48-.31-1-.53-1.51-.81a34.92,34.92,0,0,0-13.06-3.74,31,31,0,0,0-13.41,1.71,25.18,25.18,0,0,0-10.91,7.7,19.55,19.55,0,0,0-4.87,12.2c-.14,4.48,1,8.95,2.29,13.33s2.84,8.73,4.29,13.11,2.85,8.79,4.11,13.24a270.35,270.35,0,0,1,6.08,27.06q2.42,13.67,3.82,27.47c.91,9.21,1.61,18.44,1.65,27.73h-3.18c.1-9.14-.47-18.32-1.24-27.47s-1.93-18.26-3.4-27.33A271.22,271.22,0,0,0,199.24,464c-1.19-4.43-2.51-8.83-3.9-13.21s-2.85-8.76-4.12-13.22-2.36-9.06-2.15-13.83a20.92,20.92,0,0,1,5.34-12.9,26.29,26.29,0,0,1,11.5-7.87,31.94,31.94,0,0,1,13.81-1.57,35.5,35.5,0,0,1,13.27,4c.51.28,1,.52,1.53.85l1.45,1a28.15,28.15,0,0,1,2.74,2.15c1.73,1.53,3.38,3.13,5.08,4.69,3.37,3.14,6.73,6.3,10.27,9.24A50.18,50.18,0,0,0,265.61,430.74Z" fill="#17212b"/><path d="M197,306s-12.91,13.91-27,30.61-35,63.39,0,70.15S220.33,354.56,197,306Z" fill="#8BC34A"/><path d="M194.52,320.44c-6,18.49-11.46,37.11-17,55.73-2.72,9.32-5.55,18.62-7.87,28s-4.13,19-4.11,28.58a65.83,65.83,0,0,0,.38,7.17c.14,1.19.39,2.37.57,3.55.11.58.19,1.18.32,1.76l.44,1.74.45,1.74a14.7,14.7,0,0,0,.5,1.72l1.15,3.4c.41,1.13.89,2.23,1.33,3.35l.69,1.67.75,1.64c4,8.77,8.73,17.29,12.87,26.11A177.25,177.25,0,0,1,195.45,514a134.75,134.75,0,0,1,3.2,14.36c.39,2.43.72,4.88.91,7.34a55.08,55.08,0,0,1,.21,7.53v2.43h-3.17l0-2.57V543a53.58,53.58,0,0,0-.11-7c-.15-2.37-.45-4.75-.79-7.12a128.65,128.65,0,0,0-2.94-14.09,174.67,174.67,0,0,0-9.9-27.12c-4-8.81-8.58-17.37-12.53-26.31l-.75-1.68-.67-1.71c-.44-1.15-.91-2.27-1.32-3.43L166.5,451a15.62,15.62,0,0,1-.49-1.78l-.44-1.8-.43-1.79c-.12-.6-.2-1.22-.3-1.83-.17-1.21-.41-2.43-.53-3.65a67.09,67.09,0,0,1-.3-7.36c.12-9.84,2.1-19.46,4.53-28.87s5.43-18.67,8.27-28C182.55,357.39,188.33,338.85,194.52,320.44Z" fill="#17212b"/><path d="M97.77,464.18c12.12,10.19,8.22,25.55,32,34.77s40.69-6.15,35.61-22.12-21.68-18.44-43.8-18.44S97.77,464.18,97.77,464.18Z" fill="#8BC34A"/><path d="M114.8,467.61a59.53,59.53,0,0,1,13.08,5.49c2.08,1.15,4.13,2.35,6.11,3.67s4,2.57,6,3.73a96.1,96.1,0,0,0,12.76,6.06l6.62,2.56,3.31,1.32a16.86,16.86,0,0,1,3.31,1.67,21.92,21.92,0,0,1,5.11,5.29,43.67,43.67,0,0,1,3.62,6.28,76.6,76.6,0,0,1,4.84,13.56A113,113,0,0,1,183,545.69h-3.17a110,110,0,0,0-2.59-27.88,74,74,0,0,0-4.33-13.29,42.06,42.06,0,0,0-3.29-6.1,20.07,20.07,0,0,0-4.56-5,14.56,14.56,0,0,0-3-1.6l-3.25-1.4-6.55-2.75a96.65,96.65,0,0,1-12.7-6.48c-2-1.22-4-2.58-5.95-3.92s-3.93-2.61-6-3.81A59.17,59.17,0,0,0,114.8,467.61Z" fill="#17212b"/><rect x="349" y="54.31" width="2" height="97.37" fill="#e3e3e3"/><rect x="280.6" y="164.83" width="138.8" height="2" fill="#f2f3f4"/><path d="M350,183.56a17.73,17.73,0,1,1,17.72-17.73A17.75,17.75,0,0,1,350,183.56Zm0-33.45a15.73,15.73,0,1,0,15.72,15.72A15.74,15.74,0,0,0,350,150.11Z" fill="#e3e3e3"/><path d="M404.44,165.83H295.56v-3.59A54.45,54.45,0,0,1,350,107.8h0a54.45,54.45,0,0,1,54.44,54.44Z" fill="#f5f5f5"/><path d="M513.93,408.15l20,33.67-84,54.13A27.88,27.88,0,0,1,412,488.66L384,449.2s-3.07,18.71,0,52.48-12.69,44-12.69,44H252s-10.81-4.61-5.69-43c0,0-13.3,12.79-35.82,15.86s-31.72-5.12-27.12-28.14S235.57,384,235.57,384s6.66-13.82,18.94-17.4,24.05-2.66,30.19-8.24,6.65-10.31,6.65-10.31l45.54,2.18L347.12,363s5.63,0,20,3.58,18.42,11.45,37.86,34.12c11.48,13.39,22.07,25.12,28.82,32.48a15.18,15.18,0,0,0,17.51,3.54Z" fill="#d1d1d1"/><path d="M533.88,441.81l-84,54.14A27.9,27.9,0,0,1,412,488.66L384,449.2s-1.77,18.62,0,52.48c2.24,42.73-5.36,44-5.36,44H252s-10.81-4.6-5.69-43c0,0-13.31,12.8-35.82,15.87s-31.72-5.12-27.12-28.15S235.57,384,235.57,384s6.65-13.81,18.93-17.39a106.17,106.17,0,0,1,13.44-2.73V364l45.67,92.23,49.2-90.69c1.33.3,2.74.64,4.26,1,14.33,3.58,18.42,11.45,37.87,34.12,11.48,13.39,22.07,25.11,28.81,32.47a15.19,15.19,0,0,0,17.52,3.55l62.65-28.59Z" fill="#17212b"/><path d="M313.61,379.11S304,401.19,304,423.41h19.3S324.61,398.47,313.61,379.11Z" fill="#2f4559"/><path d="M267.94,404.85h83.27l-3.75,86.8a2,2,0,0,1-2,1.91H279a2,2,0,0,1-2-1.79Z" fill="#d1d1d1"/><path d="M336.89,350.23,347.12,363s-2.56,9.76-22.51,14.84l-10.72-19.5A50.27,50.27,0,0,0,336.89,350.23Z" fill="#f5f5f5"/><path d="M291.35,348.05s1.6,8.22,22.54,10.31l-11.27,19.5a26.61,26.61,0,0,1-23.1-16.52S288.28,353,291.35,348.05Z" fill="#f5f5f5"/><path d="M302.62,377.86l5,6.38a7.76,7.76,0,0,0,12.31-.16l4.66-6.22-10.72-19.5Z" fill="#2f4559"/><path d="M187.73,493.56a36.68,36.68,0,0,1,6.19-8.32,58.83,58.83,0,0,1,7.9-6.79,79.52,79.52,0,0,1,18.4-9.69c3.26-1.24,6.53-2.27,9.74-3.55,1.6-.62,3.21-1.26,4.78-2,.79-.34,1.59-.67,2.37-1l2.34-1.1a74.25,74.25,0,0,0,9-5,42.67,42.67,0,0,0,4.13-3.09A16.06,16.06,0,0,0,256,449.2a14.87,14.87,0,0,1-3.24,4,40.85,40.85,0,0,1-4,3.3,74.12,74.12,0,0,1-9,5.3,160.89,160.89,0,0,1-19.24,7.83,83.84,83.84,0,0,0-18.32,9.38,61.64,61.64,0,0,0-8,6.51A39.18,39.18,0,0,0,187.73,493.56Z" fill="#636363"/><path d="M441.43,437.7a12.41,12.41,0,0,1,2.3,4.37,16.92,16.92,0,0,1,.73,4.91,15.58,15.58,0,0,1-.72,4.93,12.29,12.29,0,0,1-2.31,4.36c.21-1.65.52-3.16.61-4.7a40.92,40.92,0,0,0,.13-4.56c0-1.51-.15-3-.28-4.57Z" fill="#636363"/><path d="M291.35,348.05s3.07-15.73-4.1-30.06-26.09-35.3-12.28-51.17,25.08-32.23,50.66-27.12,25.58,10.75,25.58,10.75,3.07,22.45,5.63,42.95,1,44.55-24,44.55l4.1,12.28S311.81,369.91,291.35,348.05Z" fill="#ffbc9d"/><path d="M267.94,404.85l1.53-2.6a2,2,0,0,1,1.73-1h76.22A2,2,0,0,1,349,402l2.21,2.82Z" fill="#f5f5f5"/><path d="M293.39,319.55V304.69a21.26,21.26,0,0,1-6.65,0c-4.6-.51-14.84-20-5.63-24.05s12.28,14.84,12.28,14.84h7.17s-10.24-18.16-2.05-32.36,14.84-14.72,22-8.58,14.84,12.55,25.08,8.58,18.42-16.25,9.72-26-16.38-5.49-16.38-5.49-8.7-10.89-28.14-11.4-26.61,16.89-26.61,16.89-10.23-4.1-18.42,8.69-5.11,28.66,0,35.82-.51,1,5.12,14.84c3.05,7.49,9.42,17.69,14.6,25.46A4.32,4.32,0,0,0,293.39,319.55Z" fill="#17212b"/><path d="M246.32,502.71l2.92-2.37,3-2.32,5.92-4.61,5.95-4.57,3-2.29c1-.74,2-1.53,3-2.26-1.75,1.79-3.6,3.5-5.5,5.14s-3.84,3.23-5.82,4.77-4,3-6.08,4.44S248.5,501.45,246.32,502.71Z" fill="#636363"/><path d="M317.45,447.83a6.42,6.42,0,0,1-11.75,0c-1.45-3.59.81-8.13,5.88-8.13S318.9,444.24,317.45,447.83Z" fill="#f5f5f5"/><path d="M273.92,464.51c3.72-1.86,5.89-.62,11.17-3.41s5.27-7.14,9.62-9,12.1-3.42,17.07-5.59,3.41-4-1.86-4-9.31,1.24-11.8,0,1.87-4.66,6.21-5.9,14-6.62,14-6.62,4.65-6.41-1.56-4.86-19.8,6.82-19.8,6.82,4.91-6.51,6.46-10.55,5.59-16.13,1.86-13-6.83,9.62-9.62,14-5,7.66-5,7.66,1.86-9.83,2.79-14.17,1.55-12.11-.62-12.11-4.66,9-7.76,15.21-4,12.41-7.76,13.35-6.21-2.49-8.07-5.9-5.27-7.14-7.45-7.14c0,0-2.48-.31,0,5S267.09,436,266.47,440a86.78,86.78,0,0,1-3.1,11.18Z" fill="#ffbc9d"/><path d="M491.46,300.76H457.77A6.78,6.78,0,0,1,451,294V267.07h33.7V294A6.78,6.78,0,0,0,491.46,300.76Z" fill="#8BC34A"/><rect x="536.33" y="233.38" width="19.74" height="33.68" transform="translate(144.76 697.2) rotate(-72.69)" fill="#d1d1d1"/><path d="M568.11,259.36l-32.16-10a6.78,6.78,0,0,1-4.47-8.49l8-25.69,32.17,10-8,25.69A6.77,6.77,0,0,0,568.11,259.36Z" fill="#8BC34A"/><rect x="525.34" y="360.5" width="33.68" height="15.93" fill="#d1d1d1"/><path d="M565.82,372.58H532.13a6.78,6.78,0,0,1-6.79-6.78V338.89H559V365.8A6.78,6.78,0,0,0,565.82,372.58Z" fill="#8BC34A"/><path d="M419,243.3a9.2,9.2,0,1,1,9.2-9.2A9.21,9.21,0,0,1,419,243.3Zm0-16.4a7.2,7.2,0,1,0,7.2,7.2A7.21,7.21,0,0,0,419,226.9Z" fill="#d1d1d1"/><path d="M459.18,346.27a9.2,9.2,0,1,1,9.2-9.2A9.21,9.21,0,0,1,459.18,346.27Zm0-16.4a7.2,7.2,0,1,0,7.2,7.2A7.21,7.21,0,0,0,459.18,329.87Z" fill="#d1d1d1"/><polygon points="419.5 323.56 378.6 323.56 378.6 351.97 392.83 351.97 399.05 362.74 405.27 351.97 419.5 351.97 419.5 323.56" fill="#E0E0E0"/><path d="M342.72,418.68l-1.64,69.58a1.73,1.73,0,0,0,1.73,1.78h0a1.73,1.73,0,0,0,1.73-1.69l1.88-69.58a1.74,1.74,0,0,0-1.73-1.78h-.23A1.74,1.74,0,0,0,342.72,418.68Z" fill="#f5f5f5"/></svg>